<svg xmlns="http://www.w3.org/2000/svg" viewBox="0 0 20 20"><title>telegram</title><g fill="#212121" ><path d="M19.88 2.1a0.43 0.43 0 0 0-0.29-0.32 1.49 1.49 0 0 0-0.78 0.06s-17.45 6.27-18.45 6.97c-0.21 0.15-0.29 0.24-0.33 0.33-0.17 0.5 0.36 0.71 0.37 0.72l4.5 1.46a0.49 0.49 0 0 0 0.23-0.01c1.02-0.65 10.29-6.5 10.83-6.7 0.08-0.02 0.15 0 0.13 0.06-0.21 0.75-8.22 7.87-8.27 7.91a0.17 0.17 0 0 0-0.06 0.15l-0.42 4.39s-0.18 1.37 1.19 0a38.32 38.32 0 0 1 2.36-2.16c1.55 1.07 3.21 2.25 3.93 2.86a1.25 1.25 0 0 0 0.92 0.36 1.03 1.03 0 0 0 0.87-0.78s3.18-12.8 3.28-14.51c0.01-0.17 0.02-0.28 0.03-0.4a1.46 1.46 0 0 0-0.04-0.39z" fill="#212121"></path></g></svg>